<svg id="图层_1" data-name="图层 1" xmlns="http://www.w3.org/2000/svg" xmlns:xlink="http://www.w3.org/1999/xlink" viewBox="0 0 334.06 132.58"><defs><style>.cls-1{fill:#231815;}.cls-2{fill:url(#radial-gradient);}.cls-3{fill:#2c0f0c;}.cls-4{fill:#8f1d22;}</style><radialGradient id="radial-gradient" cx="214.7" cy="467.64" r="39.87" gradientUnits="userSpaceOnUse"><stop offset="0" stop-color="#b8193c"/><stop offset="0.86" stop-color="#4f1933"/></radialGradient></defs><title>logo</title><path class="cls-1" d="M350.2,456.45l1.35-6.47a32.32,32.32,0,0,0,.09-4.63,10.16,10.16,0,0,0-.39-2.33h1.08v-5.93h-0.43v-5.36a10.72,10.72,0,0,0-.16-1.86h0.59l-0.64-.29c0-.19-0.08-0.38-0.14-0.57a21.74,21.74,0,0,0,2.67-1.16q-0.34,1-.64,2h4.33a21.32,21.32,0,0,0,.56,7c0,0.08.05,0.16,0.08,0.24h-0.32l4.06,11.32c3.8,7.67,5.13,10,4,8.23,3.39,5.92,10.42,6.89,19.73,20.86,26.17,39.27-16,33-16,33-26,2.5-49-9.5-49-9.5C328.5,473,350.2,456.45,350.2,456.45Z" transform="translate(-60.5 -378.29)"/><path class="cls-2" d="M247.5,458.5c-1.92-7.27,5.06,8.76-21.64-1.61l-4.28-.54q13.65-17.49,15.78-46.07H208.79a12,12,0,0,1,2.13-2.56c1.42-1.7,2.13-2.84,2.13-3.41q-0.43-.42-7.25-2.56l-2.56-.85h42.23V389H206.65q-1.28-9-2.56-10.66-15.79,1.28-16.64,2.13t0.85,3.84a46.88,46.88,0,0,0,2.56,4.69H152V400.9h19.2q-6.83,24.75-24.31,41A50.31,50.31,0,0,1,158.45,450l6.4-8.11v35.83h13.22v-9q4.26,3,8.53,9.81a199.63,199.63,0,0,0,23.46-12.37S234.84,534.25,288.5,485C288.5,485,257,494.5,247.5,458.5Zm-72-57.6H196q-6.4,21.76-17.92,35.83V422.65a81.07,81.07,0,0,1,7.25-13.22,6.46,6.46,0,0,0,1.71-3.84Q187,404.31,175.51,400.9ZM178.07,467V440.15q3.41,2.14,6.4,4.26l2.56,1.28q0.42-.42,2.56-3.41a66.2,66.2,0,0,0,9.81,15.35Q190.86,464,178.07,467Zm39.67-32.42q-0.86,0-2.56-6a45.53,45.53,0,0,1-2.13-5.54q-11.1,3.84-12.37,4.27,3.84,7.26,6.4,12.8,4.26-1.7,10.24-3.41a94.71,94.71,0,0,1-7.25,12.37,54,54,0,0,1-11.52-19.2q2.56-4.26,5.12-9h17.49A95.78,95.78,0,0,1,217.74,434.6Z" transform="translate(-60.5 -378.29)"/><path class="cls-1" d="M294.4,433.31s-18.14,22.26-38.95,40.5C255.45,473.81,291.52,479.23,294.4,433.31Z" transform="translate(-60.5 -378.29)"/><path class="cls-1" d="M270.19,439.54l-29.4,10.3v-3.22l8.27-2.57v-35.4h-7.66v-2.9h7.66V390h14.09v15.77h6.74l0.31,2.9h-7v30.9q0.3-.32,7-2.25v2.25Zm0,1.29a22.09,22.09,0,0,0,3.06-3.22,51.64,51.64,0,0,0,4.29-7.08h-4.59V415.4h0.92a42.58,42.58,0,0,0,10.72-3.86L299,403.17H273.56V389h40.73v14.16A81,81,0,0,1,302,415.4h15.31V444q0,12.23-4.59,18.67t-19,6.44l-5.21-.32-2.14-8a57.61,57.61,0,0,1-8.37,7.3l-10.62-5c6.87-4.56,12.76-12.26,16.85-18.06a62.57,62.57,0,0,0,7.35-14.48h-2.76a70.14,70.14,0,0,1-9.19,16.09,69.36,69.36,0,0,1-13.78,12.55l-8-7.72a55.25,55.25,0,0,1,6.74-5.15ZM303,430.53q-3.37,12.23-8.27,20a43.66,43.66,0,0,0-2.76,3.86l7.66-.32q2.45-.32,3.06-1.93a52.75,52.75,0,0,0,.92-10.94V430.53H303Z" transform="translate(-60.5 -378.29)"/><path class="cls-1" d="M321.33,460.14V391.91h25.72v59.86q0,8.37-4.59,8.37H321.33Zm9.8-3.54h3.67c1.43,0,2.14-1.39,2.14-4.18V396.09h-5.82v60.5Zm17.45-67.91h44.1v44.73H361.75V449.2q0,4.51,2.45,4.51l-9.8,15.45q-5.82,0-5.82-7.72V388.69Zm16.23,16.09h-3.06v12.55h3.06V404.78Zm11.94,12.55h2.76V404.78h-2.76v12.55Z" transform="translate(-60.5 -378.29)"/><path class="cls-3" d="M135.63,399c-0.53-1.94-2.15-6.64-2.15-6.64s-0.28-1.27-2.73-2.54c-2-1.05-16.43-5.59-32.54-7.43,0,0,2,3.63,1.44,7.1,0,0,27.62,4.78,31.05,6.62A55,55,0,0,1,135.63,399Z" transform="translate(-60.5 -378.29)"/><path class="cls-3" d="M139.68,414.53A106.55,106.55,0,0,0,137,402.64c-1.22-2.86-17.18-9.86-53.49-10.81-8.28-.22-10.05.87-10.09,1.34,0.5,2.15-.57,7-0.57,7s41.73,2.24,55.06,6.71C136.54,409.75,139.68,414.53,139.68,414.53Z" transform="translate(-60.5 -378.29)"/><path class="cls-3" d="M142.59,432c0.53-8.49-1.59-12.13-1.59-12.13s-0.22-1.64-3.45-3.81C136,415,126.62,407.7,95.14,405.82c-19.51-1.16-25,1.06-26.72,3.61a9.69,9.69,0,0,0,.77,7.29s27.76,1.65,43.62,3.74,22.71,6.9,24.28,7.69A58,58,0,0,1,142.59,432Z" transform="translate(-60.5 -378.29)"/><path class="cls-3" d="M117.4,450.51a116.56,116.56,0,0,0,14.1-7s2.84-1.68,2.29-3.94-7.33-13.6-34.72-15.11-31.71,1.88-33.5,3.14c-2.41,1.69-1.92,3.42-1.92,3.42l0.8,1.44,15.57,8s19.88-7,34.91-4.36c9.89,1.76,10.52,7,8.42,9.62A22,22,0,0,1,117.4,450.51Z" transform="translate(-60.5 -378.29)"/><path class="cls-3" d="M107.62,459.18a12.43,12.43,0,0,0-3.71-8.23c-3.17-3.27-9.32-4.69-13.53-5-4.54-.34-7.32,1.34-6,2.19L99.89,453s7.51,3.53,6.87,10.16C106.76,463.16,107.55,459.89,107.62,459.18Z" transform="translate(-60.5 -378.29)"/><path class="cls-3" d="M106.62,488.84s0.21-5.64-.05-10c0,0-.5-11.59-3.26-15.06a3.39,3.39,0,0,0-3.32-1.15c-1.16.32-1.1,0.93-1.1,0.93l1.28,8.34a12.42,12.42,0,0,1,4.08,5C105.94,480.49,106.62,488.84,106.62,488.84Z" transform="translate(-60.5 -378.29)"/><path class="cls-3" d="M106.11,495.88s0.44-14.91-4.42-15.11c-1.25-.05-1.23.49-1.23,0.49L101,490.1" transform="translate(-60.5 -378.29)"/><path class="cls-4" d="M63.65,431s0.86,2,5.52,2.61c30.09,3.78,71.21-6.08,71.84-13.77,0,0,2.12,3.64,1.59,12.13,0,0-6.46,12.86-57.82,13.2a23.42,23.42,0,0,1-9.47-1.55S65.24,438.07,63.65,431Z" transform="translate(-60.5 -378.29)"/><path class="cls-4" d="M84.34,448.13a20.72,20.72,0,0,0,7.12,1.16c15.48,0.35,28.6-.14,40-5.77a111.94,111.94,0,0,1-21.37,9.64,23.56,23.56,0,0,1-13,0S87.57,449.65,84.34,448.13Z" transform="translate(-60.5 -378.29)"/><path class="cls-4" d="M107.62,459.18a4.72,4.72,0,0,1-.64,2.14c-1,1.66-2.84,3.47-7.52,2.62a0.9,0.9,0,0,1-.59-0.4l0.8,9.22s0.72,1.07,4.34.05c2.43-.68,3.21-1.77,3.34-2.48C107.36,470.35,107.89,461.61,107.62,459.18Z" transform="translate(-60.5 -378.29)"/><path class="cls-4" d="M106.11,495.88" transform="translate(-60.5 -378.29)"/><path class="cls-4" d="M64.44,425.45s0.82,1.83,5.11,2.51c21.89,3.44,47.48-1.36,62-8.09,7.26-3.37,8.18-5.34,8.18-5.34A106.55,106.55,0,0,0,137,402.64s0.63,1.88-3,4.14c-8.32,5.13-32.69,11.4-57.72,7-8.3-1.46-7.87-4.35-7.87-4.35S66.29,413.8,64.44,425.45Z" transform="translate(-60.5 -378.29)"/><path class="cls-4" d="M135.63,399s-0.06,1.37-4.38,3.35c-11.76,5.39-40,6.81-53.85,3.11-5.61-1.5-6.65-4.06-6.61-4.05a25.27,25.27,0,0,1,2.65-8.25s-0.29,4.58,29.44,4c30.1-.59,30.59-4.8,30.59-4.8S135.1,397.08,135.63,399Z" transform="translate(-60.5 -378.29)"/><path class="cls-4" d="M151.22,495.31a10,10,0,0,0-4-5s-16.07-15-19.25-16.84c0,0-43.85,3-51,.5a42.64,42.64,0,0,1-16.5,12.5s8.59,5.08,7.53,8.81c0,0,11.92,1.7,41.26,1.7C140,497,151.22,495.31,151.22,495.31Z" transform="translate(-60.5 -378.29)"/></svg>